<?xml version="1.0" standalone="no"?>
<!DOCTYPE svg PUBLIC "-//W3C//DTD SVG 20010904//EN"
 "http://www.w3.org/TR/2001/REC-SVG-20010904/DTD/svg10.dtd">
<svg version="1.0" xmlns="http://www.w3.org/2000/svg"
 width="327.000000pt" height="412.000000pt" viewBox="0 0 327.000000 412.000000"
 preserveAspectRatio="xMidYMid meet">

<g transform="translate(0.000000,412.000000) scale(0.100000,-0.100000)"
fill="#000000" stroke="none">
<path d="M122 4057 c-22 -23 -22 -27 -19 -323 l2 -299 3 299 c2 292 3 300 24
323 12 13 19 23 16 23 -2 0 -14 -10 -26 -23z"/>
<path d="M227 4032 l-27 -28 2 -299 3 -299 45 -11 45 -11 6 -104 5 -105 2 104
c2 94 4 103 20 96 9 -3 29 -9 44 -12 27 -5 27 -5 30 -106 l3 -101 48 -15 47
-15 2 -100 2 -101 3 99 4 98 37 -7 c20 -4 40 -9 44 -11 5 -3 8 -50 8 -104 l0
-99 38 -10 c20 -6 43 -11 50 -11 9 0 13 -28 14 -102 l2 -103 3 98 c2 53 6 97
10 97 3 0 23 -5 44 -11 l38 -12 3 -101 3 -100 45 -11 45 -11 6 -104 5 -105 2
101 2 101 45 -10 44 -10 3 -101 3 -101 48 -14 47 -15 2 -100 2 -101 3 98 c4
105 5 106 62 86 l31 -11 0 -99 0 -98 38 -10 c20 -6 43 -11 50 -11 9 0 13 -28
14 -102 l2 -103 3 98 c3 87 6 98 21 93 9 -3 29 -8 44 -12 27 -6 27 -6 30 -106
l3 -101 48 -14 47 -14 2 -102 2 -102 5 101 6 101 40 -11 40 -12 3 -101 3 -101
49 -12 50 -12 0 -100 c0 -99 0 -100 -22 -94 -13 4 -35 9 -50 12 l-28 7 0 -97
c0 -105 0 -105 -59 -85 l-31 11 0 96 c0 91 2 98 27 126 l28 31 -32 -29 c-33
-30 -33 -30 -33 -127 l0 -97 -50 13 -50 13 2 -201 c1 -111 4 -158 5 -104 4
105 5 106 62 86 l31 -11 2 -101 2 -102 5 101 6 101 40 -11 40 -12 3 -103 3
-104 29 28 c27 26 30 35 30 96 0 63 -1 67 -25 73 -25 6 -25 8 -25 107 0 91 2
100 18 95 9 -3 29 -8 45 -12 l27 -6 2 -102 2 -101 3 98 c2 53 7 97 11 97 4 0
24 -5 45 -11 l37 -10 2 -102 2 -102 5 101 6 101 40 -11 40 -12 6 -104 5 -105
2 103 c2 93 4 103 20 98 9 -3 29 -8 45 -12 l27 -6 0 -101 0 -101 30 29 c27 26
30 35 30 92 0 58 -2 63 -25 69 -25 6 -25 8 -25 105 0 54 3 99 8 99 4 0 24 -5
44 -10 l37 -11 4 -102 3 -102 2 101 2 102 43 -13 42 -12 9 -200 9 -201 56 -16
c31 -9 75 -20 98 -26 l42 -11 3 -101 3 -101 70 -19 c39 -11 102 -28 140 -37
l70 -17 5 -205 6 -204 2 204 c2 189 3 203 20 196 9 -3 29 -9 44 -12 l28 -5 3
-207 c2 -173 3 -158 5 95 l2 301 25 23 c24 22 25 30 25 126 l0 103 -42 11
c-24 7 -69 19 -100 27 l-58 16 0 104 c0 91 -2 103 -17 103 -10 0 -54 11 -98
23 l-80 23 -5 69 c-5 63 -7 70 -27 73 -23 3 -23 3 -23 207 l0 203 43 -13 42
-12 5 -204 6 -204 2 204 c2 189 3 203 20 196 9 -3 29 -9 45 -12 l27 -5 0 -201
0 -201 30 29 30 29 0 163 0 163 -25 6 -25 6 0 201 c0 194 1 202 23 226 l22 26
-27 -24 c-27 -24 -28 -28 -28 -123 0 -54 -3 -98 -7 -98 -5 0 -25 5 -45 11
l-38 10 -2 102 -2 102 -3 -99 -4 -98 -35 7 c-20 3 -42 9 -50 12 -12 4 -14 -13
-14 -97 0 -93 -2 -102 -17 -95 -10 3 -30 9 -45 12 l-28 5 0 101 c0 96 1 102
28 131 l27 31 -32 -29 -33 -30 0 -99 0 -99 -25 6 c-14 3 -36 9 -50 12 l-25 6
0 -197 0 -197 -37 7 c-21 4 -41 9 -45 11 -5 3 -8 94 -8 202 l0 196 27 30 28
31 -32 -29 -33 -30 0 -199 c0 -186 -1 -199 -17 -192 -10 4 -33 9 -50 12 l-33
6 0 -97 c0 -53 -3 -96 -6 -96 -4 0 -24 5 -45 12 l-39 11 -2 101 -2 101 -3 -99
-4 -98 -37 7 c-20 4 -40 9 -44 11 -5 3 -8 94 -8 203 l0 199 -47 11 c-27 7 -72
18 -100 27 l-53 15 0 99 0 99 -42 11 c-24 7 -69 19 -100 27 l-57 16 -3 101 -3
101 -95 25 -95 25 -3 101 -3 101 -57 16 c-31 8 -76 20 -99 27 l-43 11 0 99 0
99 -52 15 c-29 9 -74 20 -100 27 l-48 11 0 102 0 101 -97 25 -98 26 -3 100 -3
101 -57 16 c-31 8 -76 20 -99 26 l-42 12 -3 101 -3 102 -97 25 -98 25 0 200 0
200 27 28 c15 15 24 28 22 28 -3 0 -17 -13 -32 -28z m1536 -2443 l37 -10 0
-98 0 -98 -45 10 -45 10 0 99 c0 54 3 98 8 98 4 0 24 -5 45 -11z m510 -135
l27 -6 0 -105 0 -105 -37 7 c-21 4 -41 9 -45 11 -5 3 -8 52 -8 110 0 96 2 105
18 100 9 -3 29 -8 45 -12z m90 -25 l37 -10 0 -104 c0 -58 -3 -105 -7 -105 -5
0 -25 5 -45 11 l-38 10 0 104 c0 58 3 105 8 105 4 0 24 -5 45 -11z m-73 -281
c10 -6 2 -7 -25 -3 -22 4 -44 11 -50 17 -12 12 52 1 75 -14z m105 -30 c7 -7
-1 -8 -25 -3 -53 11 -74 28 -25 20 22 -4 45 -11 50 -17z m100 -129 c11 -11
-35 -3 -70 13 -13 5 -7 6 20 2 22 -3 45 -10 50 -15z m78 -16 c15 -3 27 -9 27
-13 0 -10 -75 12 -87 24 -5 5 0 6 12 2 11 -4 32 -10 48 -13z m-100 -70 c15 -3
27 -10 27 -15 0 -5 -8 -7 -17 -4 -10 3 -30 8 -45 12 -16 3 -28 11 -28 16 0 6
8 7 18 3 9 -3 29 -9 45 -12z m90 -24 c20 -5 37 -14 37 -18 0 -9 -74 9 -86 22
-10 10 4 9 49 -4z m127 -141 c10 -6 3 -7 -20 -2 -19 3 -42 10 -50 16 -10 6 -3
7 20 2 19 -3 42 -10 50 -16z m105 -29 c11 -11 -35 -3 -70 13 -13 5 -7 6 20 2
22 -3 45 -10 50 -15z m-100 -71 c7 -7 -1 -8 -25 -3 -53 11 -74 28 -25 20 22
-4 45 -11 50 -17z m105 -30 c0 -5 -8 -7 -17 -4 -10 3 -30 8 -45 12 -16 3 -28
10 -28 14 0 4 20 3 45 -3 25 -6 45 -14 45 -19z"/>
<path d="M421 3976 c-20 -21 -21 -31 -18 -122 l3 -99 2 99 c2 87 5 103 24 123
12 13 19 23 16 23 -2 0 -14 -11 -27 -24z"/>
<path d="M304 3880 c0 -58 1 -81 3 -52 2 28 2 76 0 105 -2 28 -3 5 -3 -53z"/>
<path d="M527 3952 c-26 -27 -27 -33 -27 -126 0 -88 -2 -97 -17 -92 -10 3 -30
8 -45 12 l-28 6 0 -100 0 -100 48 -11 c26 -7 71 -19 100 -27 l52 -15 0 -99 0
-99 53 -15 c28 -8 73 -20 99 -26 l47 -12 3 -101 3 -102 95 -26 95 -25 3 -101
3 -100 57 -16 c31 -8 76 -20 100 -27 l42 -11 0 -99 0 -99 53 -15 c83 -24 131
-36 140 -36 4 0 7 44 7 98 0 92 2 100 25 122 24 22 25 29 25 129 l0 105 -30
-29 c-29 -28 -30 -31 -30 -128 0 -89 -2 -98 -17 -93 -10 3 -30 8 -45 12 l-28
6 0 101 c0 90 2 103 22 126 l23 26 -27 -24 c-27 -24 -28 -28 -28 -123 0 -107
0 -107 -59 -87 l-31 11 0 97 c0 91 2 99 25 121 24 22 25 29 25 129 l0 105 -30
-29 c-29 -28 -30 -31 -30 -125 l0 -97 -45 10 -45 10 0 101 c0 95 1 101 28 130
l27 31 -32 -29 c-33 -30 -33 -30 -33 -129 0 -89 -2 -98 -17 -93 -10 3 -30 8
-45 12 l-28 6 0 100 c0 95 1 101 25 120 24 19 25 24 25 124 0 57 -4 104 -8
104 -5 0 -18 -10 -30 -23 -19 -21 -22 -34 -22 -120 0 -106 0 -106 -59 -86
l-31 11 -2 101 -2 102 -5 -101 -6 -101 -40 11 -40 12 -3 100 c-3 96 -2 101 23
124 24 22 25 29 25 129 l0 105 -30 -29 c-29 -28 -30 -31 -30 -128 0 -89 -2
-98 -17 -93 -10 3 -30 8 -45 12 l-28 6 0 101 c0 90 2 103 23 126 l22 26 -27
-24 c-27 -24 -28 -28 -28 -123 0 -54 -3 -98 -7 -98 -5 0 -25 5 -45 11 l-38 10
0 98 c0 91 2 99 25 121 24 22 25 29 25 129 l0 105 -30 -29 c-29 -28 -30 -31
-30 -126 l0 -98 -42 13 -43 12 -3 98 c-3 96 -2 100 24 128 15 15 25 28 23 28
-3 0 -17 -13 -32 -28z"/>
<path d="M1527 2682 c-25 -27 -27 -34 -27 -124 l0 -97 -32 10 c-58 16 -58 17
-58 -89 l0 -97 98 -26 97 -25 3 -101 3 -100 57 -16 c31 -9 76 -21 100 -27 l42
-11 0 -100 c0 -71 4 -101 13 -104 6 -2 51 -14 100 -28 l87 -24 0 102 c0 95 2
103 25 125 24 22 25 29 25 129 l0 105 -30 -29 c-29 -28 -30 -31 -30 -127 0
-54 -3 -98 -6 -98 -4 0 -24 5 -45 12 l-39 11 -2 101 -2 101 -3 -99 -4 -98 -37
7 c-20 4 -40 9 -44 11 -5 3 -8 49 -8 103 0 91 2 99 25 121 24 22 25 29 25 129
l0 105 -30 -29 c-29 -28 -30 -31 -30 -125 l0 -97 -45 10 -45 10 0 101 c0 95 1
101 28 130 l27 31 -32 -29 c-33 -30 -33 -30 -33 -128 0 -54 -3 -98 -6 -98 -4
0 -24 5 -45 12 l-39 11 0 97 c0 90 2 98 25 120 24 22 25 29 25 129 l0 105 -30
-29 c-29 -28 -30 -31 -30 -122 0 -101 -1 -102 -59 -82 l-31 11 0 96 c0 90 2
97 27 124 15 15 24 28 22 28 -3 0 -17 -13 -32 -28z"/>
<path d="M2727 2162 l-27 -29 3 -199 2 -199 3 199 2 200 27 28 c15 15 24 28
22 28 -3 0 -17 -13 -32 -28z"/>
<path d="M2828 2133 l-28 -29 0 -199 0 -200 30 31 30 30 -2 198 -3 197 -27
-28z"/>
<path d="M1322 1337 c-22 -23 -22 -30 -19 -223 l2 -199 3 199 c2 190 3 201 24
223 12 13 19 23 16 23 -2 0 -14 -11 -26 -23z"/>
<path d="M2921 706 c-20 -21 -21 -31 -18 -122 l3 -99 2 99 c2 87 5 103 24 123
12 13 19 23 16 23 -2 0 -14 -11 -27 -24z"/>
<path d="M3026 682 c-26 -28 -27 -32 -23 -128 l3 -99 2 99 c2 93 4 102 29 128
15 15 24 28 22 28 -3 0 -18 -13 -33 -28z"/>
<path d="M3222 627 c-22 -23 -22 -29 -22 -322 l0 -299 30 29 30 29 0 293 c0
161 -4 293 -8 293 -5 0 -18 -10 -30 -23z"/>
<path d="M3104 330 c0 -168 2 -236 3 -152 2 83 2 221 0 305 -1 83 -3 15 -3
-153z"/>
<path d="M2904 185 c0 -55 1 -76 3 -47 2 29 2 74 0 100 -2 26 -3 2 -3 -53z"/>
<path d="M3004 155 c0 -55 1 -76 3 -47 2 29 2 74 0 100 -2 26 -3 2 -3 -53z"/>
</g>
</svg>
